<svg width="40" height="40" viewBox="0 0 40 40" fill="none" xmlns="http://www.w3.org/2000/svg">
<path d="M8.33334 18.7499C9.02369 18.7499 9.58334 19.3096 9.58334 19.9999V29.9999C9.58334 30.23 9.76989 30.4166 10 30.4166L30 30.4166C30.2301 30.4166 30.4167 30.23 30.4167 29.9999L30.4167 19.9999C30.4167 19.3096 30.9763 18.7499 31.6667 18.7499C32.357 18.7499 32.9167 19.3096 32.9167 19.9999L32.9167 29.9999C32.9167 31.6108 31.6108 32.9166 30 32.9166H10C8.38917 32.9166 7.08334 31.6108 7.08334 29.9999V19.9999C7.08334 19.3096 7.64298 18.7499 8.33334 18.7499Z" fill="black"/>
<path d="M18.1413 5.83325C17.2208 5.83325 16.4746 6.57944 16.4746 7.49992L16.4746 15.5932C15.8823 15.6314 15.2904 15.6793 14.6992 15.7368L14.1905 15.7862C13.3634 15.8666 12.8681 16.7448 13.2272 17.4942C14.6873 20.5407 16.6852 23.2987 19.125 25.6355L19.1771 25.6854C19.6419 26.1306 20.3749 26.1306 20.8397 25.6854L20.8918 25.6355C23.3316 23.2987 25.3296 20.5407 26.7896 17.4942C27.1487 16.7448 26.6534 15.8666 25.8263 15.7862L25.3177 15.7368C24.7265 15.6793 24.1345 15.6314 23.5422 15.5932L23.5422 7.49992C23.5422 6.57945 22.796 5.83325 21.8755 5.83325L18.1413 5.83325Z" fill="black"/>
</svg>
