<svg width="40" height="40" viewBox="0 0 40 40" fill="none" xmlns="http://www.w3.org/2000/svg">
<path d="M10.9091 13.6044C10.5504 13.5098 10.2522 13.2607 10.0953 12.9246C9.93837 12.5884 9.93885 12.1999 10.0966 11.8642L12.8645 5.97353C13.0708 5.53456 13.5124 5.25453 13.9974 5.25513C14.4824 5.25573 14.9233 5.53685 15.1285 5.97633L16.3496 8.59173C16.3932 8.57457 16.4383 8.55969 16.4847 8.54726C23.7302 6.60581 31.1778 10.9057 33.1193 18.1512C35.0607 25.3968 30.7609 32.8444 23.5153 34.7858C16.2697 36.7273 8.82213 32.4274 6.88068 25.1818C6.26331 22.8778 6.2772 20.5496 6.81792 18.3851C6.98524 17.7153 7.66383 17.308 8.33361 17.4753C9.00338 17.6426 9.4107 18.3212 9.24339 18.991C8.8029 20.7543 8.79076 22.6511 9.2955 24.5348C10.8796 30.4467 16.9563 33.9551 22.8682 32.371C28.7801 30.7869 32.2885 24.7102 30.7044 18.7983C29.1462 12.983 23.2411 9.49335 17.4218 10.8884L18.6538 13.5273C18.859 13.9668 18.7914 14.4853 18.4804 14.8575C18.1695 15.2297 17.6713 15.3884 17.2023 15.2647L10.9091 13.6044Z" fill="black"/>
</svg>
